HIERARCHY
ROOT Hips
{
  OFFSET 0 0 0
  CHANNELS 6 Xposition Yposition Zposition Zrotation Yrotation Xrotation
  JOINT LeftThigh
  {
    OFFSET 8.409438 0 -5.917753
    CHANNELS 3 Zrotation Yrotation Xrotation
    JOINT LeftLeg
    {
      OFFSET 0 0 -42.358652
      CHANNELS 3 Zrotation Yrotation Xrotation
      JOINT LeftFoot
      {
        OFFSET 0 0 -39.357303
        CHANNELS 3 Zrotation Yrotation Xrotation
      }
    }
  }
  JOINT RightThigh
  {
    OFFSET -8.409438 0 -5.917753
    CHANNELS 3 Zrotation Yrotation Xrotation
    JOINT RightLeg
    {
      OFFSET 0 0 -42.358652
      CHANNELS 3 Zrotation Yrotation Xrotation
      JOINT RightFoot
      {
        OFFSET 0 0 -39.357303
        CHANNELS 3 Zrotation Yrotation Xrotation
      }
    }
  }
  JOINT SpineLow
  {
    OFFSET 0 0 4.719101
    CHANNELS 3 Zrotation Yrotation Xrotation
    JOINT SpineMid
    {
      OFFSET 0 0 12.899191
      CHANNELS 3 Zrotation Yrotation Xrotation
      JOINT Chest
      {
        OFFSET 0 0 12.899191
        CHANNELS 3 Zrotation Yrotation Xrotation
        JOINT LeftShoulder
        {
          OFFSET 7.550562 1.41573 9.438202
          CHANNELS 3 Zrotation Yrotation Xrotation
          JOINT LeftArm
          {
            OFFSET 9.155056 0 4.247191
            CHANNELS 3 Zrotation Yrotation Xrotation
            JOINT LeftForearm
            {
              OFFSET 0 0 25.771955
              CHANNELS 3 Zrotation Yrotation Xrotation
              JOINT LeftHand
              {
                OFFSET 0 0 25.197169
                CHANNELS 3 Zrotation Yrotation Xrotation
              }
            }
          }
        }
        JOINT RightShoulder
        {
          OFFSET -7.550562 1.41573 9.438202
          CHANNELS 3 Zrotation Yrotation Xrotation
          JOINT RightArm
          {
            OFFSET -9.155056 0 4.247191
            CHANNELS 3 Zrotation Yrotation Xrotation
            JOINT RightForearm
            {
              OFFSET 0 0 -25.771955
              CHANNELS 3 Zrotation Yrotation Xrotation
              JOINT RightHand
              {
                OFFSET 0 0 -25.197169
                CHANNELS 3 Zrotation Yrotation Xrotation
              }
            }
          }
        }
        JOINT Neck
        {
          OFFSET 0 0 15.101124
          CHANNELS 3 Zrotation Yrotation Xrotation
          JOINT Head
          {
            OFFSET 0 0 11.325843
            CHANNELS 3 Zrotation Yrotation Xrotation
            End Site
            {
              OFFSET 0 0 14.157303
            }
          }
        }
      }
    }
  }
}
MOTION
Frames: 7
Frame Time: 0.0
0.0  89.887642  0.0  13.231874  -61.110415  -116.66837  46.974656  -42.973315  -32.169847  11.607611  33.954886  68.88148  -0.67986  2.102248  0.806709  -19.153438  18.736442  -49.063093  31.935574  -8.260953  76.215976  9.768973  8.960397  -5.792219  2.489626  2.021861  1.82731  6.967657  5.327777  5.207503  6.967658  5.327777  5.207503  -16.997708  20.9292  14.655796  -80.216525  46.747342  -70.553336  -41.89782  7.126463  70.965276  38.459262  6.828784  4.407  7.878255  5.766287  22.872955  92.847506  51.829889  11.969256  -14.53065  0.228945  -79.848856  91.631858  -8.902898  16.439746  2.717445  -4.712161  8.163837  2.100454  -3.498666  6.140552  
0.0  89.887642  0.0  11.482538  -59.810681  -114.521813  46.53619  -42.250273  -33.225805  11.235119  33.699666  68.703776  -0.718984  2.013403  0.76981  -20.014821  19.166687  -48.432953  31.333347  -7.992162  74.605123  9.770469  8.944216  -5.578084  2.302497  1.745253  1.571636  6.41378  4.613392  4.464427  6.41378  4.613392  4.464427  -16.659854  22.305802  15.533737  -79.576745  46.903279  -70.15861  -42.13216  9.826022  71.044011  38.253931  6.592198  1.798494  8.643832  6.976635  24.806713  88.954033  52.41921  9.616475  -14.859495  0.629527  -81.938401  92.101281  -10.932135  17.381385  2.424506  -3.688184  8.845318  1.871666  -2.731789  6.646464  
0.0  89.887642  0.0  9.484146  -58.187489  -112.334527  45.756134  -41.644959  -34.199599  10.894304  33.343923  68.548849  -0.9421  1.884806  0.657121  -21.287211  19.598579  -47.509607  30.833693  -7.791556  72.668303  9.711976  8.869257  -5.420454  2.047646  1.363837  1.261568  5.671715  3.616802  3.564331  5.671715  3.616802  3.564331  -15.923291  24.198136  16.682931  -78.39073  47.362249  -69.175635  -42.335043  13.083171  71.083991  38.256849  6.440628  -0.795242  9.482176  8.543555  26.861123  84.876463  52.890551  7.198728  -15.001916  1.204422  -84.728406  92.765565  -13.737272  18.663364  2.087524  -2.327182  9.825739  1.603357  -1.712374  7.376341  
0.0  89.887642  0.0  7.226063  -56.279278  -109.974738  44.8443  -41.02018  -35.373083  10.461903  32.957677  68.381664  -1.056718  1.790223  0.618614  -22.925403  19.956221  -46.39209  30.341753  -7.542065  70.453639  9.652553  8.761189  -5.331336  1.74924  0.914645  0.882994  4.816058  2.434333  2.479315  4.816058  2.434333  2.479316  -14.786974  26.204875  18.274425  -76.969268  47.874506  -67.831353  -42.314944  16.804398  71.219514  38.417454  6.248077  -2.74573  10.360115  10.08145  28.857198  80.846026  53.469715  4.781424  -15.168502  2.094763  -87.817567  93.682274  -16.836628  19.677331  1.64073  -0.80638  11.083131  1.24564  -0.575255  8.314446  
0.0  89.887642  0.0  4.955545  -54.171719  -107.571021  43.905474  -40.372475  -36.712816  9.934415  32.616647  68.083158  -1.174349  1.664485  0.620866  -24.773578  20.278119  -45.154352  29.830338  -7.303586  67.948061  9.560939  8.599981  -5.276458  1.484858  0.671919  0.762791  4.080364  1.788787  2.125838  4.080363  1.788787  2.125838  -14.53153  26.201325  18.252787  -75.587715  48.543451  -66.176244  -42.101538  20.424642  71.374646  38.64196  5.78712  -3.525897  10.435944  10.36876  28.282779  76.610132  54.647654  2.102273  -15.378222  2.654042  -90.773597  95.44749  -19.916814  19.911791  0.940578  -0.051756  11.305932  0.706678  -0.021422  8.479552  
0.0  89.887642  0.0  2.870586  -52.012281  -105.344875  43.016333  -39.72785  -38.041348  9.330606  32.354734  67.637638  -1.097378  1.648014  0.757624  -26.512445  20.677482  -43.702895  29.243798  -7.072565  65.136441  9.427432  8.408842  -5.292677  1.253732  0.472585  0.823524  3.442966  1.248509  2.275072  3.442966  1.248509  2.275072  -14.908021  25.419082  17.034469  -74.034191  49.382812  -63.955443  -41.717856  23.456148  71.525034  38.970933  4.8423  -3.031055  10.109121  10.498495  26.129317  71.395905  56.357303  -1.620215  -15.50593  3.191334  -93.583003  98.119364  -22.981532  18.900408  0.02928  0.441329  10.922422  0.014077  0.331646  8.191755  
0.0  89.887642  0.0  1.021942  -49.849557  -103.308768  42.198914  -39.032982  -39.315187  8.552259  32.074635  67.028007  -1.144201  1.663238  0.875059  -27.981301  21.201261  -42.04406  28.486014  -6.800502  62.058223  9.243714  8.199285  -5.355683  1.054895  0.211465  0.782951  2.890008  0.543678  2.148917  2.890008  0.543678  2.148918  -14.998207  24.830421  16.452606  -72.333374  50.461325  -61.113691  -41.173873  25.45523  71.725532  39.328681  3.37398  -1.509783  9.849104  10.839326  24.333009  65.231115  58.195344  -6.314354  -15.646244  3.330055  -96.236041  102.066593  -26.062737  16.831597  -1.032685  1.010151  10.932855  -0.79287  0.73942  8.201163  
